<mxfile host="app.diagrams.net" modified="2024-03-08T20:33:29.382Z" agent="Mozilla/5.0 (Windows NT 10.0; Win64; x64) AppleWebKit/537.36 (KHTML, like Gecko) Chrome/122.0.0.0 Safari/537.36" etag="lYwRKXmJBCBbKO62o3U7" version="24.0.2" type="device">
  <diagram name="Страница — 1" id="RU7xms_DqW6rA9io-PWT">
    <mxGraphModel dx="1434" dy="756" grid="1" gridSize="10" guides="1" tooltips="1" connect="1" arrows="1" fold="1" page="1" pageScale="1" pageWidth="827" pageHeight="1169" math="0" shadow="0">
      <root>
        <mxCell id="0" />
        <mxCell id="1" parent="0" />
        <mxCell id="FsQQHY0S51KTQBau3fkM-1" value="Shaverma" style="rounded=1;whiteSpace=wrap;html=1;fontStyle=0" vertex="1" parent="1">
          <mxGeometry x="354" y="30" width="120" height="60" as="geometry" />
        </mxCell>
        <mxCell id="FsQQHY0S51KTQBau3fkM-8" value="" style="endArrow=classic;html=1;rounded=0;exitX=0.5;exitY=1;exitDx=0;exitDy=0;" edge="1" parent="1">
          <mxGeometry width="50" height="50" relative="1" as="geometry">
            <mxPoint x="420" y="90" as="sourcePoint" />
            <mxPoint x="420" y="140" as="targetPoint" />
            <Array as="points">
              <mxPoint x="420" y="120" />
              <mxPoint x="420" y="140" />
            </Array>
          </mxGeometry>
        </mxCell>
        <mxCell id="FsQQHY0S51KTQBau3fkM-12" value="Kebab" style="ellipse;whiteSpace=wrap;html=1;" vertex="1" parent="1">
          <mxGeometry x="260" y="280" width="110" height="60" as="geometry" />
        </mxCell>
        <mxCell id="FsQQHY0S51KTQBau3fkM-13" value="Burrito" style="ellipse;whiteSpace=wrap;html=1;" vertex="1" parent="1">
          <mxGeometry x="480" y="280" width="100" height="60" as="geometry" />
        </mxCell>
        <mxCell id="FsQQHY0S51KTQBau3fkM-15" value="GirosPita" style="ellipse;whiteSpace=wrap;html=1;" vertex="1" parent="1">
          <mxGeometry x="370" y="280" width="110" height="60" as="geometry" />
        </mxCell>
        <mxCell id="FsQQHY0S51KTQBau3fkM-16" value="" style="endArrow=classic;html=1;rounded=0;exitX=0.5;exitY=1;exitDx=0;exitDy=0;" edge="1" parent="1">
          <mxGeometry width="50" height="50" relative="1" as="geometry">
            <mxPoint x="319" y="180" as="sourcePoint" />
            <mxPoint x="319" y="280" as="targetPoint" />
            <Array as="points">
              <mxPoint x="319" y="220" />
            </Array>
          </mxGeometry>
        </mxCell>
        <mxCell id="FsQQHY0S51KTQBau3fkM-19" value="" style="endArrow=classic;html=1;rounded=0;exitX=0.5;exitY=1;exitDx=0;exitDy=0;" edge="1" parent="1">
          <mxGeometry width="50" height="50" relative="1" as="geometry">
            <mxPoint x="520" y="180" as="sourcePoint" />
            <mxPoint x="520" y="280" as="targetPoint" />
            <Array as="points">
              <mxPoint x="520" y="220" />
            </Array>
          </mxGeometry>
        </mxCell>
        <mxCell id="FsQQHY0S51KTQBau3fkM-20" value="Start" style="ellipse;whiteSpace=wrap;html=1;" vertex="1" parent="1">
          <mxGeometry x="150" y="20" width="120" height="80" as="geometry" />
        </mxCell>
        <mxCell id="FsQQHY0S51KTQBau3fkM-21" value="" style="endArrow=classic;html=1;rounded=0;exitX=1;exitY=0.5;exitDx=0;exitDy=0;entryX=0;entryY=0.5;entryDx=0;entryDy=0;" edge="1" parent="1" source="FsQQHY0S51KTQBau3fkM-20" target="FsQQHY0S51KTQBau3fkM-1">
          <mxGeometry width="50" height="50" relative="1" as="geometry">
            <mxPoint x="240" y="30" as="sourcePoint" />
            <mxPoint x="240" y="80" as="targetPoint" />
            <Array as="points" />
          </mxGeometry>
        </mxCell>
        <mxCell id="FsQQHY0S51KTQBau3fkM-23" value="What type of shaverma u want?" style="rhombus;whiteSpace=wrap;html=1;" vertex="1" parent="1">
          <mxGeometry x="320" y="140" width="200" height="80" as="geometry" />
        </mxCell>
        <mxCell id="FsQQHY0S51KTQBau3fkM-24" value="" style="endArrow=classic;html=1;rounded=0;exitX=0.5;exitY=1;exitDx=0;exitDy=0;" edge="1" parent="1">
          <mxGeometry width="50" height="50" relative="1" as="geometry">
            <mxPoint x="419.5" y="220" as="sourcePoint" />
            <mxPoint x="420" y="280" as="targetPoint" />
            <Array as="points">
              <mxPoint x="419.5" y="260" />
            </Array>
          </mxGeometry>
        </mxCell>
        <mxCell id="FsQQHY0S51KTQBau3fkM-25" value="What size you want?" style="rhombus;whiteSpace=wrap;html=1;" vertex="1" parent="1">
          <mxGeometry x="320" y="380" width="200" height="80" as="geometry" />
        </mxCell>
        <mxCell id="FsQQHY0S51KTQBau3fkM-26" value="" style="endArrow=classic;html=1;rounded=0;exitX=0.5;exitY=1;exitDx=0;exitDy=0;entryX=0;entryY=0.5;entryDx=0;entryDy=0;" edge="1" parent="1" source="FsQQHY0S51KTQBau3fkM-12" target="FsQQHY0S51KTQBau3fkM-25">
          <mxGeometry width="50" height="50" relative="1" as="geometry">
            <mxPoint x="390" y="410" as="sourcePoint" />
            <mxPoint x="440" y="360" as="targetPoint" />
          </mxGeometry>
        </mxCell>
        <mxCell id="FsQQHY0S51KTQBau3fkM-27" value="" style="endArrow=classic;html=1;rounded=0;entryX=0.5;entryY=0;entryDx=0;entryDy=0;exitX=0.409;exitY=1.033;exitDx=0;exitDy=0;exitPerimeter=0;" edge="1" parent="1" source="FsQQHY0S51KTQBau3fkM-15" target="FsQQHY0S51KTQBau3fkM-25">
          <mxGeometry width="50" height="50" relative="1" as="geometry">
            <mxPoint x="400" y="420" as="sourcePoint" />
            <mxPoint x="450" y="370" as="targetPoint" />
          </mxGeometry>
        </mxCell>
        <mxCell id="FsQQHY0S51KTQBau3fkM-28" value="" style="endArrow=classic;html=1;rounded=0;exitX=0.5;exitY=1;exitDx=0;exitDy=0;entryX=1;entryY=0.5;entryDx=0;entryDy=0;" edge="1" parent="1" source="FsQQHY0S51KTQBau3fkM-13" target="FsQQHY0S51KTQBau3fkM-25">
          <mxGeometry width="50" height="50" relative="1" as="geometry">
            <mxPoint x="410" y="430" as="sourcePoint" />
            <mxPoint x="460" y="380" as="targetPoint" />
          </mxGeometry>
        </mxCell>
        <mxCell id="FsQQHY0S51KTQBau3fkM-29" value="20 cm" style="ellipse;whiteSpace=wrap;html=1;" vertex="1" parent="1">
          <mxGeometry x="220" y="515" width="90" height="30" as="geometry" />
        </mxCell>
        <mxCell id="FsQQHY0S51KTQBau3fkM-30" value="30 cm" style="ellipse;whiteSpace=wrap;html=1;" vertex="1" parent="1">
          <mxGeometry x="330" y="515" width="90" height="30" as="geometry" />
        </mxCell>
        <mxCell id="FsQQHY0S51KTQBau3fkM-31" value="40 cm&amp;nbsp;" style="ellipse;whiteSpace=wrap;html=1;" vertex="1" parent="1">
          <mxGeometry x="430" y="515" width="90" height="30" as="geometry" />
        </mxCell>
        <mxCell id="FsQQHY0S51KTQBau3fkM-32" value="50 cm" style="ellipse;whiteSpace=wrap;html=1;" vertex="1" parent="1">
          <mxGeometry x="530" y="515" width="90" height="30" as="geometry" />
        </mxCell>
        <mxCell id="FsQQHY0S51KTQBau3fkM-33" value="" style="endArrow=classic;html=1;rounded=0;entryX=0.5;entryY=0;entryDx=0;entryDy=0;exitX=0.12;exitY=0.675;exitDx=0;exitDy=0;exitPerimeter=0;" edge="1" parent="1" source="FsQQHY0S51KTQBau3fkM-25" target="FsQQHY0S51KTQBau3fkM-29">
          <mxGeometry width="50" height="50" relative="1" as="geometry">
            <mxPoint x="240" y="490" as="sourcePoint" />
            <mxPoint x="290" y="440" as="targetPoint" />
          </mxGeometry>
        </mxCell>
        <mxCell id="FsQQHY0S51KTQBau3fkM-34" value="" style="endArrow=classic;html=1;rounded=0;entryX=0.411;entryY=-0.033;entryDx=0;entryDy=0;exitX=0.12;exitY=0.675;exitDx=0;exitDy=0;exitPerimeter=0;entryPerimeter=0;" edge="1" parent="1" target="FsQQHY0S51KTQBau3fkM-30">
          <mxGeometry width="50" height="50" relative="1" as="geometry">
            <mxPoint x="389" y="444" as="sourcePoint" />
            <mxPoint x="310" y="525" as="targetPoint" />
          </mxGeometry>
        </mxCell>
        <mxCell id="FsQQHY0S51KTQBau3fkM-35" value="" style="endArrow=classic;html=1;rounded=0;entryX=0.433;entryY=-0.033;entryDx=0;entryDy=0;exitX=0.12;exitY=0.675;exitDx=0;exitDy=0;exitPerimeter=0;entryPerimeter=0;" edge="1" parent="1" target="FsQQHY0S51KTQBau3fkM-31">
          <mxGeometry width="50" height="50" relative="1" as="geometry">
            <mxPoint x="464.5" y="440" as="sourcePoint" />
            <mxPoint x="385.5" y="521" as="targetPoint" />
          </mxGeometry>
        </mxCell>
        <mxCell id="FsQQHY0S51KTQBau3fkM-36" value="" style="endArrow=classic;html=1;rounded=0;entryX=0.5;entryY=0;entryDx=0;entryDy=0;exitX=0.87;exitY=0.688;exitDx=0;exitDy=0;exitPerimeter=0;" edge="1" parent="1" source="FsQQHY0S51KTQBau3fkM-25" target="FsQQHY0S51KTQBau3fkM-32">
          <mxGeometry width="50" height="50" relative="1" as="geometry">
            <mxPoint x="659" y="379" as="sourcePoint" />
            <mxPoint x="580" y="460" as="targetPoint" />
            <Array as="points" />
          </mxGeometry>
        </mxCell>
        <mxCell id="FsQQHY0S51KTQBau3fkM-37" value="Your total is 6$" style="shape=parallelogram;perimeter=parallelogramPerimeter;whiteSpace=wrap;html=1;fixedSize=1;" vertex="1" parent="1">
          <mxGeometry x="200" y="600" width="110" height="40" as="geometry" />
        </mxCell>
        <mxCell id="FsQQHY0S51KTQBau3fkM-38" value="Your total is 8$" style="shape=parallelogram;perimeter=parallelogramPerimeter;whiteSpace=wrap;html=1;fixedSize=1;" vertex="1" parent="1">
          <mxGeometry x="310" y="600" width="110" height="40" as="geometry" />
        </mxCell>
        <mxCell id="FsQQHY0S51KTQBau3fkM-39" value="Your total is 10$" style="shape=parallelogram;perimeter=parallelogramPerimeter;whiteSpace=wrap;html=1;fixedSize=1;" vertex="1" parent="1">
          <mxGeometry x="420" y="600" width="110" height="40" as="geometry" />
        </mxCell>
        <mxCell id="FsQQHY0S51KTQBau3fkM-40" value="Your total is 12$" style="shape=parallelogram;perimeter=parallelogramPerimeter;whiteSpace=wrap;html=1;fixedSize=1;" vertex="1" parent="1">
          <mxGeometry x="530" y="600" width="110" height="40" as="geometry" />
        </mxCell>
        <mxCell id="FsQQHY0S51KTQBau3fkM-41" value="" style="endArrow=classic;html=1;rounded=0;exitX=0.5;exitY=1;exitDx=0;exitDy=0;entryX=0.591;entryY=-0.075;entryDx=0;entryDy=0;entryPerimeter=0;" edge="1" parent="1" source="FsQQHY0S51KTQBau3fkM-29" target="FsQQHY0S51KTQBau3fkM-37">
          <mxGeometry width="50" height="50" relative="1" as="geometry">
            <mxPoint x="390" y="410" as="sourcePoint" />
            <mxPoint x="440" y="360" as="targetPoint" />
          </mxGeometry>
        </mxCell>
        <mxCell id="FsQQHY0S51KTQBau3fkM-42" value="" style="endArrow=classic;html=1;rounded=0;exitX=0.5;exitY=1;exitDx=0;exitDy=0;entryX=0.591;entryY=0.025;entryDx=0;entryDy=0;entryPerimeter=0;" edge="1" parent="1" source="FsQQHY0S51KTQBau3fkM-30" target="FsQQHY0S51KTQBau3fkM-38">
          <mxGeometry width="50" height="50" relative="1" as="geometry">
            <mxPoint x="400" y="420" as="sourcePoint" />
            <mxPoint x="450" y="370" as="targetPoint" />
          </mxGeometry>
        </mxCell>
        <mxCell id="FsQQHY0S51KTQBau3fkM-43" value="" style="endArrow=classic;html=1;rounded=0;exitX=0.5;exitY=1;exitDx=0;exitDy=0;entryX=0.5;entryY=0;entryDx=0;entryDy=0;" edge="1" parent="1" source="FsQQHY0S51KTQBau3fkM-31" target="FsQQHY0S51KTQBau3fkM-39">
          <mxGeometry width="50" height="50" relative="1" as="geometry">
            <mxPoint x="410" y="430" as="sourcePoint" />
            <mxPoint x="460" y="380" as="targetPoint" />
          </mxGeometry>
        </mxCell>
        <mxCell id="FsQQHY0S51KTQBau3fkM-44" value="" style="endArrow=classic;html=1;rounded=0;exitX=0.5;exitY=1;exitDx=0;exitDy=0;entryX=0.409;entryY=-0.025;entryDx=0;entryDy=0;entryPerimeter=0;" edge="1" parent="1" source="FsQQHY0S51KTQBau3fkM-32" target="FsQQHY0S51KTQBau3fkM-40">
          <mxGeometry width="50" height="50" relative="1" as="geometry">
            <mxPoint x="420" y="440" as="sourcePoint" />
            <mxPoint x="470" y="390" as="targetPoint" />
          </mxGeometry>
        </mxCell>
        <mxCell id="FsQQHY0S51KTQBau3fkM-45" value="Accept your order?" style="rhombus;whiteSpace=wrap;html=1;" vertex="1" parent="1">
          <mxGeometry x="322" y="700" width="196" height="80" as="geometry" />
        </mxCell>
        <mxCell id="FsQQHY0S51KTQBau3fkM-46" value="" style="endArrow=classic;html=1;rounded=0;exitX=0.436;exitY=1.075;exitDx=0;exitDy=0;exitPerimeter=0;entryX=0.041;entryY=0.425;entryDx=0;entryDy=0;entryPerimeter=0;" edge="1" parent="1" source="FsQQHY0S51KTQBau3fkM-37" target="FsQQHY0S51KTQBau3fkM-45">
          <mxGeometry width="50" height="50" relative="1" as="geometry">
            <mxPoint x="430" y="450" as="sourcePoint" />
            <mxPoint x="480" y="400" as="targetPoint" />
          </mxGeometry>
        </mxCell>
        <mxCell id="FsQQHY0S51KTQBau3fkM-47" value="" style="endArrow=classic;html=1;rounded=0;exitX=0.5;exitY=1;exitDx=0;exitDy=0;entryX=0.327;entryY=0.125;entryDx=0;entryDy=0;entryPerimeter=0;" edge="1" parent="1" source="FsQQHY0S51KTQBau3fkM-38" target="FsQQHY0S51KTQBau3fkM-45">
          <mxGeometry width="50" height="50" relative="1" as="geometry">
            <mxPoint x="390" y="540" as="sourcePoint" />
            <mxPoint x="440" y="490" as="targetPoint" />
          </mxGeometry>
        </mxCell>
        <mxCell id="FsQQHY0S51KTQBau3fkM-48" value="" style="endArrow=classic;html=1;rounded=0;exitX=0.5;exitY=1;exitDx=0;exitDy=0;entryX=0.673;entryY=0.138;entryDx=0;entryDy=0;entryPerimeter=0;" edge="1" parent="1" source="FsQQHY0S51KTQBau3fkM-39" target="FsQQHY0S51KTQBau3fkM-45">
          <mxGeometry width="50" height="50" relative="1" as="geometry">
            <mxPoint x="400" y="550" as="sourcePoint" />
            <mxPoint x="450" y="500" as="targetPoint" />
          </mxGeometry>
        </mxCell>
        <mxCell id="FsQQHY0S51KTQBau3fkM-49" value="" style="endArrow=classic;html=1;rounded=0;exitX=0.436;exitY=1.075;exitDx=0;exitDy=0;exitPerimeter=0;entryX=0.929;entryY=0.413;entryDx=0;entryDy=0;entryPerimeter=0;" edge="1" parent="1" source="FsQQHY0S51KTQBau3fkM-40" target="FsQQHY0S51KTQBau3fkM-45">
          <mxGeometry width="50" height="50" relative="1" as="geometry">
            <mxPoint x="410" y="560" as="sourcePoint" />
            <mxPoint x="460" y="510" as="targetPoint" />
          </mxGeometry>
        </mxCell>
        <mxCell id="FsQQHY0S51KTQBau3fkM-50" value="YES" style="endArrow=classic;html=1;rounded=0;exitX=0;exitY=0.5;exitDx=0;exitDy=0;" edge="1" parent="1" source="FsQQHY0S51KTQBau3fkM-45">
          <mxGeometry x="-0.358" width="50" height="50" relative="1" as="geometry">
            <mxPoint x="390" y="540" as="sourcePoint" />
            <mxPoint x="230" y="810" as="targetPoint" />
            <Array as="points">
              <mxPoint x="230" y="740" />
            </Array>
            <mxPoint as="offset" />
          </mxGeometry>
        </mxCell>
        <mxCell id="FsQQHY0S51KTQBau3fkM-51" value="NO" style="endArrow=classic;html=1;rounded=0;exitX=1;exitY=0.5;exitDx=0;exitDy=0;" edge="1" parent="1" source="FsQQHY0S51KTQBau3fkM-45">
          <mxGeometry x="-0.3953" width="50" height="50" relative="1" as="geometry">
            <mxPoint x="420" y="570" as="sourcePoint" />
            <mxPoint x="610" y="810" as="targetPoint" />
            <Array as="points">
              <mxPoint x="570" y="740" />
              <mxPoint x="610" y="740" />
            </Array>
            <mxPoint as="offset" />
          </mxGeometry>
        </mxCell>
        <mxCell id="FsQQHY0S51KTQBau3fkM-52" value="Thanks for order!" style="shape=parallelogram;perimeter=parallelogramPerimeter;whiteSpace=wrap;html=1;fixedSize=1;" vertex="1" parent="1">
          <mxGeometry x="170" y="810" width="120" height="60" as="geometry" />
        </mxCell>
        <mxCell id="FsQQHY0S51KTQBau3fkM-53" value="Good luck!" style="shape=parallelogram;perimeter=parallelogramPerimeter;whiteSpace=wrap;html=1;fixedSize=1;" vertex="1" parent="1">
          <mxGeometry x="550" y="810" width="120" height="60" as="geometry" />
        </mxCell>
        <mxCell id="FsQQHY0S51KTQBau3fkM-54" value="" style="endArrow=classic;html=1;rounded=0;exitX=0.5;exitY=1;exitDx=0;exitDy=0;" edge="1" parent="1" source="FsQQHY0S51KTQBau3fkM-52">
          <mxGeometry width="50" height="50" relative="1" as="geometry">
            <mxPoint x="390" y="740" as="sourcePoint" />
            <mxPoint x="360" y="920" as="targetPoint" />
            <Array as="points">
              <mxPoint x="230" y="920" />
            </Array>
          </mxGeometry>
        </mxCell>
        <mxCell id="FsQQHY0S51KTQBau3fkM-55" value="" style="endArrow=classic;html=1;rounded=0;exitX=0.5;exitY=1;exitDx=0;exitDy=0;entryX=1;entryY=0.5;entryDx=0;entryDy=0;" edge="1" parent="1" source="FsQQHY0S51KTQBau3fkM-53" target="FsQQHY0S51KTQBau3fkM-56">
          <mxGeometry width="50" height="50" relative="1" as="geometry">
            <mxPoint x="390" y="740" as="sourcePoint" />
            <mxPoint x="510" y="920" as="targetPoint" />
            <Array as="points">
              <mxPoint x="610" y="920" />
              <mxPoint x="520" y="920" />
            </Array>
          </mxGeometry>
        </mxCell>
        <mxCell id="FsQQHY0S51KTQBau3fkM-56" value="Stop" style="ellipse;whiteSpace=wrap;html=1;" vertex="1" parent="1">
          <mxGeometry x="365" y="880" width="120" height="80" as="geometry" />
        </mxCell>
      </root>
    </mxGraphModel>
  </diagram>
</mxfile>
